<mxfile host="Electron" agent="Mozilla/5.0 (Windows NT 10.0; Win64; x64) AppleWebKit/537.36 (KHTML, like Gecko) draw.io/27.0.9 Chrome/134.0.6998.205 Electron/35.4.0 Safari/537.36" version="27.0.9">
  <diagram name="Page-1" id="GuPBZ_X8KuD-lEL8zJRX">
    <mxGraphModel dx="1104" dy="719" grid="1" gridSize="10" guides="1" tooltips="1" connect="1" arrows="1" fold="1" page="1" pageScale="1" pageWidth="827" pageHeight="1169" math="0" shadow="0">
      <root>
        <mxCell id="0" />
        <mxCell id="1" parent="0" />
        <mxCell id="zJq3wZkq0JXxxK5WvGRM-1" value="gold.dim_customers" style="shape=table;startSize=30;container=1;collapsible=1;childLayout=tableLayout;fixedRows=1;rowLines=0;fontStyle=1;align=center;resizeLast=1;html=1;rounded=1;fillColor=#fff2cc;strokeColor=#d6b656;fontSize=16;" vertex="1" parent="1">
          <mxGeometry y="165" width="180" height="420" as="geometry" />
        </mxCell>
        <mxCell id="zJq3wZkq0JXxxK5WvGRM-2" value="" style="shape=tableRow;horizontal=0;startSize=0;swimlaneHead=0;swimlaneBody=0;fillColor=none;collapsible=0;dropTarget=0;points=[[0,0.5],[1,0.5]];portConstraint=eastwest;top=0;left=0;right=0;bottom=1;fontStyle=1" vertex="1" parent="zJq3wZkq0JXxxK5WvGRM-1">
          <mxGeometry y="30" width="180" height="30" as="geometry" />
        </mxCell>
        <mxCell id="zJq3wZkq0JXxxK5WvGRM-3" value="PK" style="shape=partialRectangle;connectable=0;fillColor=none;top=0;left=0;bottom=0;right=0;fontStyle=1;overflow=hidden;whiteSpace=wrap;html=1;fontSize=16;" vertex="1" parent="zJq3wZkq0JXxxK5WvGRM-2">
          <mxGeometry width="30" height="30" as="geometry">
            <mxRectangle width="30" height="30" as="alternateBounds" />
          </mxGeometry>
        </mxCell>
        <mxCell id="zJq3wZkq0JXxxK5WvGRM-4" value="customer_key" style="shape=partialRectangle;connectable=0;fillColor=default;top=0;left=0;bottom=0;right=0;align=left;spacingLeft=6;fontStyle=5;overflow=hidden;whiteSpace=wrap;html=1;fontSize=16;labelBackgroundColor=#9D9D9D;" vertex="1" parent="zJq3wZkq0JXxxK5WvGRM-2">
          <mxGeometry x="30" width="150" height="30" as="geometry">
            <mxRectangle width="150" height="30" as="alternateBounds" />
          </mxGeometry>
        </mxCell>
        <mxCell id="zJq3wZkq0JXxxK5WvGRM-5" value="" style="shape=tableRow;horizontal=0;startSize=0;swimlaneHead=0;swimlaneBody=0;fillColor=none;collapsible=0;dropTarget=0;points=[[0,0.5],[1,0.5]];portConstraint=eastwest;top=0;left=0;right=0;bottom=0;fontSize=19;fontStyle=1" vertex="1" parent="zJq3wZkq0JXxxK5WvGRM-1">
          <mxGeometry y="60" width="180" height="39" as="geometry" />
        </mxCell>
        <mxCell id="zJq3wZkq0JXxxK5WvGRM-6" value="" style="shape=partialRectangle;connectable=0;fillColor=none;top=0;left=0;bottom=0;right=0;editable=1;overflow=hidden;whiteSpace=wrap;html=1;fontSize=19;fontStyle=1" vertex="1" parent="zJq3wZkq0JXxxK5WvGRM-5">
          <mxGeometry width="30" height="39" as="geometry">
            <mxRectangle width="30" height="39" as="alternateBounds" />
          </mxGeometry>
        </mxCell>
        <mxCell id="zJq3wZkq0JXxxK5WvGRM-7" value="customer_id" style="shape=partialRectangle;connectable=0;fillColor=none;top=0;left=0;bottom=0;right=0;align=left;spacingLeft=6;overflow=hidden;whiteSpace=wrap;html=1;fontSize=16;fontStyle=1" vertex="1" parent="zJq3wZkq0JXxxK5WvGRM-5">
          <mxGeometry x="30" width="150" height="39" as="geometry">
            <mxRectangle width="150" height="39" as="alternateBounds" />
          </mxGeometry>
        </mxCell>
        <mxCell id="zJq3wZkq0JXxxK5WvGRM-8" value="" style="shape=tableRow;horizontal=0;startSize=0;swimlaneHead=0;swimlaneBody=0;fillColor=none;collapsible=0;dropTarget=0;points=[[0,0.5],[1,0.5]];portConstraint=eastwest;top=0;left=0;right=0;bottom=0;fontSize=16;fontStyle=1" vertex="1" parent="zJq3wZkq0JXxxK5WvGRM-1">
          <mxGeometry y="99" width="180" height="39" as="geometry" />
        </mxCell>
        <mxCell id="zJq3wZkq0JXxxK5WvGRM-9" value="" style="shape=partialRectangle;connectable=0;fillColor=none;top=0;left=0;bottom=0;right=0;editable=1;overflow=hidden;whiteSpace=wrap;html=1;fontSize=16;fontStyle=1" vertex="1" parent="zJq3wZkq0JXxxK5WvGRM-8">
          <mxGeometry width="30" height="39" as="geometry">
            <mxRectangle width="30" height="39" as="alternateBounds" />
          </mxGeometry>
        </mxCell>
        <mxCell id="zJq3wZkq0JXxxK5WvGRM-10" value="customer_number" style="shape=partialRectangle;connectable=0;fillColor=none;top=0;left=0;bottom=0;right=0;align=left;spacingLeft=6;overflow=hidden;whiteSpace=wrap;html=1;fontSize=16;fontStyle=1" vertex="1" parent="zJq3wZkq0JXxxK5WvGRM-8">
          <mxGeometry x="30" width="150" height="39" as="geometry">
            <mxRectangle width="150" height="39" as="alternateBounds" />
          </mxGeometry>
        </mxCell>
        <mxCell id="zJq3wZkq0JXxxK5WvGRM-11" value="" style="shape=tableRow;horizontal=0;startSize=0;swimlaneHead=0;swimlaneBody=0;fillColor=none;collapsible=0;dropTarget=0;points=[[0,0.5],[1,0.5]];portConstraint=eastwest;top=0;left=0;right=0;bottom=0;fontSize=16;fontStyle=1" vertex="1" parent="zJq3wZkq0JXxxK5WvGRM-1">
          <mxGeometry y="138" width="180" height="39" as="geometry" />
        </mxCell>
        <mxCell id="zJq3wZkq0JXxxK5WvGRM-12" value="" style="shape=partialRectangle;connectable=0;fillColor=none;top=0;left=0;bottom=0;right=0;editable=1;overflow=hidden;whiteSpace=wrap;html=1;fontSize=16;fontStyle=1" vertex="1" parent="zJq3wZkq0JXxxK5WvGRM-11">
          <mxGeometry width="30" height="39" as="geometry">
            <mxRectangle width="30" height="39" as="alternateBounds" />
          </mxGeometry>
        </mxCell>
        <mxCell id="zJq3wZkq0JXxxK5WvGRM-13" value="first_name" style="shape=partialRectangle;connectable=0;fillColor=none;top=0;left=0;bottom=0;right=0;align=left;spacingLeft=6;overflow=hidden;whiteSpace=wrap;html=1;fontSize=16;fontStyle=1" vertex="1" parent="zJq3wZkq0JXxxK5WvGRM-11">
          <mxGeometry x="30" width="150" height="39" as="geometry">
            <mxRectangle width="150" height="39" as="alternateBounds" />
          </mxGeometry>
        </mxCell>
        <mxCell id="zJq3wZkq0JXxxK5WvGRM-14" value="" style="shape=tableRow;horizontal=0;startSize=0;swimlaneHead=0;swimlaneBody=0;fillColor=none;collapsible=0;dropTarget=0;points=[[0,0.5],[1,0.5]];portConstraint=eastwest;top=0;left=0;right=0;bottom=0;fontSize=16;fontStyle=1" vertex="1" parent="zJq3wZkq0JXxxK5WvGRM-1">
          <mxGeometry y="177" width="180" height="39" as="geometry" />
        </mxCell>
        <mxCell id="zJq3wZkq0JXxxK5WvGRM-15" value="" style="shape=partialRectangle;connectable=0;fillColor=none;top=0;left=0;bottom=0;right=0;editable=1;overflow=hidden;whiteSpace=wrap;html=1;fontSize=16;fontStyle=1" vertex="1" parent="zJq3wZkq0JXxxK5WvGRM-14">
          <mxGeometry width="30" height="39" as="geometry">
            <mxRectangle width="30" height="39" as="alternateBounds" />
          </mxGeometry>
        </mxCell>
        <mxCell id="zJq3wZkq0JXxxK5WvGRM-16" value="last_name" style="shape=partialRectangle;connectable=0;fillColor=none;top=0;left=0;bottom=0;right=0;align=left;spacingLeft=6;overflow=hidden;whiteSpace=wrap;html=1;fontSize=16;fontStyle=1" vertex="1" parent="zJq3wZkq0JXxxK5WvGRM-14">
          <mxGeometry x="30" width="150" height="39" as="geometry">
            <mxRectangle width="150" height="39" as="alternateBounds" />
          </mxGeometry>
        </mxCell>
        <mxCell id="zJq3wZkq0JXxxK5WvGRM-17" value="" style="shape=tableRow;horizontal=0;startSize=0;swimlaneHead=0;swimlaneBody=0;fillColor=none;collapsible=0;dropTarget=0;points=[[0,0.5],[1,0.5]];portConstraint=eastwest;top=0;left=0;right=0;bottom=0;fontSize=16;fontStyle=1" vertex="1" parent="zJq3wZkq0JXxxK5WvGRM-1">
          <mxGeometry y="216" width="180" height="39" as="geometry" />
        </mxCell>
        <mxCell id="zJq3wZkq0JXxxK5WvGRM-18" value="" style="shape=partialRectangle;connectable=0;fillColor=none;top=0;left=0;bottom=0;right=0;editable=1;overflow=hidden;whiteSpace=wrap;html=1;fontSize=16;fontStyle=1" vertex="1" parent="zJq3wZkq0JXxxK5WvGRM-17">
          <mxGeometry width="30" height="39" as="geometry">
            <mxRectangle width="30" height="39" as="alternateBounds" />
          </mxGeometry>
        </mxCell>
        <mxCell id="zJq3wZkq0JXxxK5WvGRM-19" value="country" style="shape=partialRectangle;connectable=0;fillColor=none;top=0;left=0;bottom=0;right=0;align=left;spacingLeft=6;overflow=hidden;whiteSpace=wrap;html=1;fontSize=16;fontStyle=1" vertex="1" parent="zJq3wZkq0JXxxK5WvGRM-17">
          <mxGeometry x="30" width="150" height="39" as="geometry">
            <mxRectangle width="150" height="39" as="alternateBounds" />
          </mxGeometry>
        </mxCell>
        <mxCell id="zJq3wZkq0JXxxK5WvGRM-20" value="" style="shape=tableRow;horizontal=0;startSize=0;swimlaneHead=0;swimlaneBody=0;fillColor=none;collapsible=0;dropTarget=0;points=[[0,0.5],[1,0.5]];portConstraint=eastwest;top=0;left=0;right=0;bottom=0;fontSize=16;fontStyle=1" vertex="1" parent="zJq3wZkq0JXxxK5WvGRM-1">
          <mxGeometry y="255" width="180" height="39" as="geometry" />
        </mxCell>
        <mxCell id="zJq3wZkq0JXxxK5WvGRM-21" value="" style="shape=partialRectangle;connectable=0;fillColor=none;top=0;left=0;bottom=0;right=0;editable=1;overflow=hidden;whiteSpace=wrap;html=1;fontSize=16;fontStyle=1" vertex="1" parent="zJq3wZkq0JXxxK5WvGRM-20">
          <mxGeometry width="30" height="39" as="geometry">
            <mxRectangle width="30" height="39" as="alternateBounds" />
          </mxGeometry>
        </mxCell>
        <mxCell id="zJq3wZkq0JXxxK5WvGRM-22" value="marital_status" style="shape=partialRectangle;connectable=0;fillColor=none;top=0;left=0;bottom=0;right=0;align=left;spacingLeft=6;overflow=hidden;whiteSpace=wrap;html=1;fontSize=16;fontStyle=1" vertex="1" parent="zJq3wZkq0JXxxK5WvGRM-20">
          <mxGeometry x="30" width="150" height="39" as="geometry">
            <mxRectangle width="150" height="39" as="alternateBounds" />
          </mxGeometry>
        </mxCell>
        <mxCell id="zJq3wZkq0JXxxK5WvGRM-23" value="" style="shape=tableRow;horizontal=0;startSize=0;swimlaneHead=0;swimlaneBody=0;fillColor=none;collapsible=0;dropTarget=0;points=[[0,0.5],[1,0.5]];portConstraint=eastwest;top=0;left=0;right=0;bottom=0;fontSize=16;fontStyle=1" vertex="1" parent="zJq3wZkq0JXxxK5WvGRM-1">
          <mxGeometry y="294" width="180" height="39" as="geometry" />
        </mxCell>
        <mxCell id="zJq3wZkq0JXxxK5WvGRM-24" value="" style="shape=partialRectangle;connectable=0;fillColor=none;top=0;left=0;bottom=0;right=0;editable=1;overflow=hidden;whiteSpace=wrap;html=1;fontSize=16;fontStyle=1" vertex="1" parent="zJq3wZkq0JXxxK5WvGRM-23">
          <mxGeometry width="30" height="39" as="geometry">
            <mxRectangle width="30" height="39" as="alternateBounds" />
          </mxGeometry>
        </mxCell>
        <mxCell id="zJq3wZkq0JXxxK5WvGRM-25" value="gender" style="shape=partialRectangle;connectable=0;fillColor=none;top=0;left=0;bottom=0;right=0;align=left;spacingLeft=6;overflow=hidden;whiteSpace=wrap;html=1;fontSize=16;fontStyle=1" vertex="1" parent="zJq3wZkq0JXxxK5WvGRM-23">
          <mxGeometry x="30" width="150" height="39" as="geometry">
            <mxRectangle width="150" height="39" as="alternateBounds" />
          </mxGeometry>
        </mxCell>
        <mxCell id="zJq3wZkq0JXxxK5WvGRM-26" value="" style="shape=tableRow;horizontal=0;startSize=0;swimlaneHead=0;swimlaneBody=0;fillColor=none;collapsible=0;dropTarget=0;points=[[0,0.5],[1,0.5]];portConstraint=eastwest;top=0;left=0;right=0;bottom=0;fontSize=16;fontStyle=1" vertex="1" parent="zJq3wZkq0JXxxK5WvGRM-1">
          <mxGeometry y="333" width="180" height="39" as="geometry" />
        </mxCell>
        <mxCell id="zJq3wZkq0JXxxK5WvGRM-27" value="" style="shape=partialRectangle;connectable=0;fillColor=none;top=0;left=0;bottom=0;right=0;editable=1;overflow=hidden;whiteSpace=wrap;html=1;fontSize=16;fontStyle=1" vertex="1" parent="zJq3wZkq0JXxxK5WvGRM-26">
          <mxGeometry width="30" height="39" as="geometry">
            <mxRectangle width="30" height="39" as="alternateBounds" />
          </mxGeometry>
        </mxCell>
        <mxCell id="zJq3wZkq0JXxxK5WvGRM-28" value="birth_date" style="shape=partialRectangle;connectable=0;fillColor=none;top=0;left=0;bottom=0;right=0;align=left;spacingLeft=6;overflow=hidden;whiteSpace=wrap;html=1;fontSize=16;fontStyle=1" vertex="1" parent="zJq3wZkq0JXxxK5WvGRM-26">
          <mxGeometry x="30" width="150" height="39" as="geometry">
            <mxRectangle width="150" height="39" as="alternateBounds" />
          </mxGeometry>
        </mxCell>
        <mxCell id="zJq3wZkq0JXxxK5WvGRM-29" value="" style="shape=tableRow;horizontal=0;startSize=0;swimlaneHead=0;swimlaneBody=0;fillColor=none;collapsible=0;dropTarget=0;points=[[0,0.5],[1,0.5]];portConstraint=eastwest;top=0;left=0;right=0;bottom=0;fontSize=16;fontStyle=1" vertex="1" parent="zJq3wZkq0JXxxK5WvGRM-1">
          <mxGeometry y="372" width="180" height="39" as="geometry" />
        </mxCell>
        <mxCell id="zJq3wZkq0JXxxK5WvGRM-30" value="" style="shape=partialRectangle;connectable=0;fillColor=none;top=0;left=0;bottom=0;right=0;editable=1;overflow=hidden;whiteSpace=wrap;html=1;fontSize=16;fontStyle=1" vertex="1" parent="zJq3wZkq0JXxxK5WvGRM-29">
          <mxGeometry width="30" height="39" as="geometry">
            <mxRectangle width="30" height="39" as="alternateBounds" />
          </mxGeometry>
        </mxCell>
        <mxCell id="zJq3wZkq0JXxxK5WvGRM-31" value="create_date" style="shape=partialRectangle;connectable=0;fillColor=none;top=0;left=0;bottom=0;right=0;align=left;spacingLeft=6;overflow=hidden;whiteSpace=wrap;html=1;fontSize=16;fontStyle=1" vertex="1" parent="zJq3wZkq0JXxxK5WvGRM-29">
          <mxGeometry x="30" width="150" height="39" as="geometry">
            <mxRectangle width="150" height="39" as="alternateBounds" />
          </mxGeometry>
        </mxCell>
        <mxCell id="zJq3wZkq0JXxxK5WvGRM-33" value="gold.dim_products" style="shape=table;startSize=30;container=1;collapsible=1;childLayout=tableLayout;fixedRows=1;rowLines=0;fontStyle=1;align=center;resizeLast=1;html=1;rounded=1;fillColor=#fff2cc;strokeColor=#d6b656;fontSize=16;labelBackgroundColor=#9E9E9E;" vertex="1" parent="1">
          <mxGeometry x="570" y="160" width="180" height="458" as="geometry" />
        </mxCell>
        <mxCell id="zJq3wZkq0JXxxK5WvGRM-34" value="" style="shape=tableRow;horizontal=0;startSize=0;swimlaneHead=0;swimlaneBody=0;fillColor=none;collapsible=0;dropTarget=0;points=[[0,0.5],[1,0.5]];portConstraint=eastwest;top=0;left=0;right=0;bottom=1;fontSize=16;fontStyle=1" vertex="1" parent="zJq3wZkq0JXxxK5WvGRM-33">
          <mxGeometry y="30" width="180" height="30" as="geometry" />
        </mxCell>
        <mxCell id="zJq3wZkq0JXxxK5WvGRM-35" value="PK" style="shape=partialRectangle;connectable=0;fillColor=none;top=0;left=0;bottom=0;right=0;fontStyle=1;overflow=hidden;whiteSpace=wrap;html=1;fontSize=16;" vertex="1" parent="zJq3wZkq0JXxxK5WvGRM-34">
          <mxGeometry width="30" height="30" as="geometry">
            <mxRectangle width="30" height="30" as="alternateBounds" />
          </mxGeometry>
        </mxCell>
        <mxCell id="zJq3wZkq0JXxxK5WvGRM-36" value="product_key" style="shape=partialRectangle;connectable=0;fillColor=none;top=0;left=0;bottom=0;right=0;align=left;spacingLeft=6;fontStyle=5;overflow=hidden;whiteSpace=wrap;html=1;fontSize=16;" vertex="1" parent="zJq3wZkq0JXxxK5WvGRM-34">
          <mxGeometry x="30" width="150" height="30" as="geometry">
            <mxRectangle width="150" height="30" as="alternateBounds" />
          </mxGeometry>
        </mxCell>
        <mxCell id="zJq3wZkq0JXxxK5WvGRM-37" value="" style="shape=tableRow;horizontal=0;startSize=0;swimlaneHead=0;swimlaneBody=0;fillColor=none;collapsible=0;dropTarget=0;points=[[0,0.5],[1,0.5]];portConstraint=eastwest;top=0;left=0;right=0;bottom=0;fontSize=16;fontStyle=1" vertex="1" parent="zJq3wZkq0JXxxK5WvGRM-33">
          <mxGeometry y="60" width="180" height="39" as="geometry" />
        </mxCell>
        <mxCell id="zJq3wZkq0JXxxK5WvGRM-38" value="" style="shape=partialRectangle;connectable=0;fillColor=none;top=0;left=0;bottom=0;right=0;editable=1;overflow=hidden;whiteSpace=wrap;html=1;fontSize=16;fontStyle=1" vertex="1" parent="zJq3wZkq0JXxxK5WvGRM-37">
          <mxGeometry width="30" height="39" as="geometry">
            <mxRectangle width="30" height="39" as="alternateBounds" />
          </mxGeometry>
        </mxCell>
        <mxCell id="zJq3wZkq0JXxxK5WvGRM-39" value="product_id" style="shape=partialRectangle;connectable=0;fillColor=none;top=0;left=0;bottom=0;right=0;align=left;spacingLeft=6;overflow=hidden;whiteSpace=wrap;html=1;fontSize=16;fontStyle=1" vertex="1" parent="zJq3wZkq0JXxxK5WvGRM-37">
          <mxGeometry x="30" width="150" height="39" as="geometry">
            <mxRectangle width="150" height="39" as="alternateBounds" />
          </mxGeometry>
        </mxCell>
        <mxCell id="zJq3wZkq0JXxxK5WvGRM-40" value="" style="shape=tableRow;horizontal=0;startSize=0;swimlaneHead=0;swimlaneBody=0;fillColor=none;collapsible=0;dropTarget=0;points=[[0,0.5],[1,0.5]];portConstraint=eastwest;top=0;left=0;right=0;bottom=0;fontSize=16;fontStyle=1" vertex="1" parent="zJq3wZkq0JXxxK5WvGRM-33">
          <mxGeometry y="99" width="180" height="39" as="geometry" />
        </mxCell>
        <mxCell id="zJq3wZkq0JXxxK5WvGRM-41" value="" style="shape=partialRectangle;connectable=0;fillColor=none;top=0;left=0;bottom=0;right=0;editable=1;overflow=hidden;whiteSpace=wrap;html=1;fontSize=16;fontStyle=1" vertex="1" parent="zJq3wZkq0JXxxK5WvGRM-40">
          <mxGeometry width="30" height="39" as="geometry">
            <mxRectangle width="30" height="39" as="alternateBounds" />
          </mxGeometry>
        </mxCell>
        <mxCell id="zJq3wZkq0JXxxK5WvGRM-42" value="product_number" style="shape=partialRectangle;connectable=0;fillColor=none;top=0;left=0;bottom=0;right=0;align=left;spacingLeft=6;overflow=hidden;whiteSpace=wrap;html=1;fontSize=16;fontStyle=1" vertex="1" parent="zJq3wZkq0JXxxK5WvGRM-40">
          <mxGeometry x="30" width="150" height="39" as="geometry">
            <mxRectangle width="150" height="39" as="alternateBounds" />
          </mxGeometry>
        </mxCell>
        <mxCell id="zJq3wZkq0JXxxK5WvGRM-43" value="" style="shape=tableRow;horizontal=0;startSize=0;swimlaneHead=0;swimlaneBody=0;fillColor=none;collapsible=0;dropTarget=0;points=[[0,0.5],[1,0.5]];portConstraint=eastwest;top=0;left=0;right=0;bottom=0;fontSize=16;fontStyle=1" vertex="1" parent="zJq3wZkq0JXxxK5WvGRM-33">
          <mxGeometry y="138" width="180" height="39" as="geometry" />
        </mxCell>
        <mxCell id="zJq3wZkq0JXxxK5WvGRM-44" value="" style="shape=partialRectangle;connectable=0;fillColor=none;top=0;left=0;bottom=0;right=0;editable=1;overflow=hidden;whiteSpace=wrap;html=1;fontSize=16;fontStyle=1" vertex="1" parent="zJq3wZkq0JXxxK5WvGRM-43">
          <mxGeometry width="30" height="39" as="geometry">
            <mxRectangle width="30" height="39" as="alternateBounds" />
          </mxGeometry>
        </mxCell>
        <mxCell id="zJq3wZkq0JXxxK5WvGRM-45" value="product_name" style="shape=partialRectangle;connectable=0;fillColor=none;top=0;left=0;bottom=0;right=0;align=left;spacingLeft=6;overflow=hidden;whiteSpace=wrap;html=1;fontSize=16;fontStyle=1" vertex="1" parent="zJq3wZkq0JXxxK5WvGRM-43">
          <mxGeometry x="30" width="150" height="39" as="geometry">
            <mxRectangle width="150" height="39" as="alternateBounds" />
          </mxGeometry>
        </mxCell>
        <mxCell id="zJq3wZkq0JXxxK5WvGRM-46" value="" style="shape=tableRow;horizontal=0;startSize=0;swimlaneHead=0;swimlaneBody=0;fillColor=none;collapsible=0;dropTarget=0;points=[[0,0.5],[1,0.5]];portConstraint=eastwest;top=0;left=0;right=0;bottom=0;fontSize=16;fontStyle=1" vertex="1" parent="zJq3wZkq0JXxxK5WvGRM-33">
          <mxGeometry y="177" width="180" height="38" as="geometry" />
        </mxCell>
        <mxCell id="zJq3wZkq0JXxxK5WvGRM-47" value="" style="shape=partialRectangle;connectable=0;fillColor=none;top=0;left=0;bottom=0;right=0;editable=1;overflow=hidden;whiteSpace=wrap;html=1;fontSize=16;fontStyle=1" vertex="1" parent="zJq3wZkq0JXxxK5WvGRM-46">
          <mxGeometry width="30" height="38" as="geometry">
            <mxRectangle width="30" height="38" as="alternateBounds" />
          </mxGeometry>
        </mxCell>
        <mxCell id="zJq3wZkq0JXxxK5WvGRM-48" value="category_id" style="shape=partialRectangle;connectable=0;fillColor=none;top=0;left=0;bottom=0;right=0;align=left;spacingLeft=6;overflow=hidden;whiteSpace=wrap;html=1;fontSize=16;fontStyle=1" vertex="1" parent="zJq3wZkq0JXxxK5WvGRM-46">
          <mxGeometry x="30" width="150" height="38" as="geometry">
            <mxRectangle width="150" height="38" as="alternateBounds" />
          </mxGeometry>
        </mxCell>
        <mxCell id="zJq3wZkq0JXxxK5WvGRM-49" value="" style="shape=tableRow;horizontal=0;startSize=0;swimlaneHead=0;swimlaneBody=0;fillColor=none;collapsible=0;dropTarget=0;points=[[0,0.5],[1,0.5]];portConstraint=eastwest;top=0;left=0;right=0;bottom=0;fontSize=16;fontStyle=1" vertex="1" parent="zJq3wZkq0JXxxK5WvGRM-33">
          <mxGeometry y="215" width="180" height="39" as="geometry" />
        </mxCell>
        <mxCell id="zJq3wZkq0JXxxK5WvGRM-50" value="" style="shape=partialRectangle;connectable=0;fillColor=none;top=0;left=0;bottom=0;right=0;editable=1;overflow=hidden;whiteSpace=wrap;html=1;fontSize=16;fontStyle=1" vertex="1" parent="zJq3wZkq0JXxxK5WvGRM-49">
          <mxGeometry width="30" height="39" as="geometry">
            <mxRectangle width="30" height="39" as="alternateBounds" />
          </mxGeometry>
        </mxCell>
        <mxCell id="zJq3wZkq0JXxxK5WvGRM-51" value="category" style="shape=partialRectangle;connectable=0;fillColor=none;top=0;left=0;bottom=0;right=0;align=left;spacingLeft=6;overflow=hidden;whiteSpace=wrap;html=1;fontSize=16;fontStyle=1" vertex="1" parent="zJq3wZkq0JXxxK5WvGRM-49">
          <mxGeometry x="30" width="150" height="39" as="geometry">
            <mxRectangle width="150" height="39" as="alternateBounds" />
          </mxGeometry>
        </mxCell>
        <mxCell id="zJq3wZkq0JXxxK5WvGRM-52" value="" style="shape=tableRow;horizontal=0;startSize=0;swimlaneHead=0;swimlaneBody=0;fillColor=none;collapsible=0;dropTarget=0;points=[[0,0.5],[1,0.5]];portConstraint=eastwest;top=0;left=0;right=0;bottom=0;fontSize=16;fontStyle=1" vertex="1" parent="zJq3wZkq0JXxxK5WvGRM-33">
          <mxGeometry y="254" width="180" height="39" as="geometry" />
        </mxCell>
        <mxCell id="zJq3wZkq0JXxxK5WvGRM-53" value="" style="shape=partialRectangle;connectable=0;fillColor=none;top=0;left=0;bottom=0;right=0;editable=1;overflow=hidden;whiteSpace=wrap;html=1;fontSize=16;fontStyle=1" vertex="1" parent="zJq3wZkq0JXxxK5WvGRM-52">
          <mxGeometry width="30" height="39" as="geometry">
            <mxRectangle width="30" height="39" as="alternateBounds" />
          </mxGeometry>
        </mxCell>
        <mxCell id="zJq3wZkq0JXxxK5WvGRM-54" value="subcategory" style="shape=partialRectangle;connectable=0;fillColor=none;top=0;left=0;bottom=0;right=0;align=left;spacingLeft=6;overflow=hidden;whiteSpace=wrap;html=1;fontSize=16;fontStyle=1" vertex="1" parent="zJq3wZkq0JXxxK5WvGRM-52">
          <mxGeometry x="30" width="150" height="39" as="geometry">
            <mxRectangle width="150" height="39" as="alternateBounds" />
          </mxGeometry>
        </mxCell>
        <mxCell id="zJq3wZkq0JXxxK5WvGRM-55" value="" style="shape=tableRow;horizontal=0;startSize=0;swimlaneHead=0;swimlaneBody=0;fillColor=none;collapsible=0;dropTarget=0;points=[[0,0.5],[1,0.5]];portConstraint=eastwest;top=0;left=0;right=0;bottom=0;fontSize=16;fontStyle=1" vertex="1" parent="zJq3wZkq0JXxxK5WvGRM-33">
          <mxGeometry y="293" width="180" height="39" as="geometry" />
        </mxCell>
        <mxCell id="zJq3wZkq0JXxxK5WvGRM-56" value="" style="shape=partialRectangle;connectable=0;fillColor=none;top=0;left=0;bottom=0;right=0;editable=1;overflow=hidden;whiteSpace=wrap;html=1;fontSize=16;fontStyle=1" vertex="1" parent="zJq3wZkq0JXxxK5WvGRM-55">
          <mxGeometry width="30" height="39" as="geometry">
            <mxRectangle width="30" height="39" as="alternateBounds" />
          </mxGeometry>
        </mxCell>
        <mxCell id="zJq3wZkq0JXxxK5WvGRM-57" value="maintenance" style="shape=partialRectangle;connectable=0;fillColor=none;top=0;left=0;bottom=0;right=0;align=left;spacingLeft=6;overflow=hidden;whiteSpace=wrap;html=1;fontSize=16;fontStyle=1" vertex="1" parent="zJq3wZkq0JXxxK5WvGRM-55">
          <mxGeometry x="30" width="150" height="39" as="geometry">
            <mxRectangle width="150" height="39" as="alternateBounds" />
          </mxGeometry>
        </mxCell>
        <mxCell id="zJq3wZkq0JXxxK5WvGRM-58" value="" style="shape=tableRow;horizontal=0;startSize=0;swimlaneHead=0;swimlaneBody=0;fillColor=none;collapsible=0;dropTarget=0;points=[[0,0.5],[1,0.5]];portConstraint=eastwest;top=0;left=0;right=0;bottom=0;fontSize=16;fontStyle=1" vertex="1" parent="zJq3wZkq0JXxxK5WvGRM-33">
          <mxGeometry y="332" width="180" height="39" as="geometry" />
        </mxCell>
        <mxCell id="zJq3wZkq0JXxxK5WvGRM-59" value="" style="shape=partialRectangle;connectable=0;fillColor=none;top=0;left=0;bottom=0;right=0;editable=1;overflow=hidden;whiteSpace=wrap;html=1;fontSize=16;fontStyle=1" vertex="1" parent="zJq3wZkq0JXxxK5WvGRM-58">
          <mxGeometry width="30" height="39" as="geometry">
            <mxRectangle width="30" height="39" as="alternateBounds" />
          </mxGeometry>
        </mxCell>
        <mxCell id="zJq3wZkq0JXxxK5WvGRM-60" value="cost" style="shape=partialRectangle;connectable=0;fillColor=none;top=0;left=0;bottom=0;right=0;align=left;spacingLeft=6;overflow=hidden;whiteSpace=wrap;html=1;fontSize=16;fontStyle=1" vertex="1" parent="zJq3wZkq0JXxxK5WvGRM-58">
          <mxGeometry x="30" width="150" height="39" as="geometry">
            <mxRectangle width="150" height="39" as="alternateBounds" />
          </mxGeometry>
        </mxCell>
        <mxCell id="zJq3wZkq0JXxxK5WvGRM-61" value="" style="shape=tableRow;horizontal=0;startSize=0;swimlaneHead=0;swimlaneBody=0;fillColor=none;collapsible=0;dropTarget=0;points=[[0,0.5],[1,0.5]];portConstraint=eastwest;top=0;left=0;right=0;bottom=0;fontSize=16;fontStyle=1" vertex="1" parent="zJq3wZkq0JXxxK5WvGRM-33">
          <mxGeometry y="371" width="180" height="39" as="geometry" />
        </mxCell>
        <mxCell id="zJq3wZkq0JXxxK5WvGRM-62" value="" style="shape=partialRectangle;connectable=0;fillColor=none;top=0;left=0;bottom=0;right=0;editable=1;overflow=hidden;whiteSpace=wrap;html=1;fontSize=16;fontStyle=1" vertex="1" parent="zJq3wZkq0JXxxK5WvGRM-61">
          <mxGeometry width="30" height="39" as="geometry">
            <mxRectangle width="30" height="39" as="alternateBounds" />
          </mxGeometry>
        </mxCell>
        <mxCell id="zJq3wZkq0JXxxK5WvGRM-63" value="product_line" style="shape=partialRectangle;connectable=0;fillColor=none;top=0;left=0;bottom=0;right=0;align=left;spacingLeft=6;overflow=hidden;whiteSpace=wrap;html=1;fontSize=16;fontStyle=1" vertex="1" parent="zJq3wZkq0JXxxK5WvGRM-61">
          <mxGeometry x="30" width="150" height="39" as="geometry">
            <mxRectangle width="150" height="39" as="alternateBounds" />
          </mxGeometry>
        </mxCell>
        <mxCell id="zJq3wZkq0JXxxK5WvGRM-64" value="" style="shape=tableRow;horizontal=0;startSize=0;swimlaneHead=0;swimlaneBody=0;fillColor=none;collapsible=0;dropTarget=0;points=[[0,0.5],[1,0.5]];portConstraint=eastwest;top=0;left=0;right=0;bottom=0;fontSize=16;fontStyle=1" vertex="1" parent="zJq3wZkq0JXxxK5WvGRM-33">
          <mxGeometry y="410" width="180" height="39" as="geometry" />
        </mxCell>
        <mxCell id="zJq3wZkq0JXxxK5WvGRM-65" value="" style="shape=partialRectangle;connectable=0;fillColor=none;top=0;left=0;bottom=0;right=0;editable=1;overflow=hidden;whiteSpace=wrap;html=1;fontSize=16;fontStyle=1" vertex="1" parent="zJq3wZkq0JXxxK5WvGRM-64">
          <mxGeometry width="30" height="39" as="geometry">
            <mxRectangle width="30" height="39" as="alternateBounds" />
          </mxGeometry>
        </mxCell>
        <mxCell id="zJq3wZkq0JXxxK5WvGRM-66" value="start_date" style="shape=partialRectangle;connectable=0;fillColor=none;top=0;left=0;bottom=0;right=0;align=left;spacingLeft=6;overflow=hidden;whiteSpace=wrap;html=1;fontSize=16;fontStyle=1" vertex="1" parent="zJq3wZkq0JXxxK5WvGRM-64">
          <mxGeometry x="30" width="150" height="39" as="geometry">
            <mxRectangle width="150" height="39" as="alternateBounds" />
          </mxGeometry>
        </mxCell>
        <mxCell id="zJq3wZkq0JXxxK5WvGRM-67" value="gold.fact_sales" style="shape=table;startSize=30;container=1;collapsible=1;childLayout=tableLayout;fixedRows=1;rowLines=0;fontStyle=1;align=center;resizeLast=1;html=1;rounded=1;fillColor=#dae8fc;strokeColor=#6c8ebf;fontSize=16;" vertex="1" parent="1">
          <mxGeometry x="290" y="165" width="180" height="420" as="geometry" />
        </mxCell>
        <mxCell id="zJq3wZkq0JXxxK5WvGRM-71" value="" style="shape=tableRow;horizontal=0;startSize=0;swimlaneHead=0;swimlaneBody=0;fillColor=none;collapsible=0;dropTarget=0;points=[[0,0.5],[1,0.5]];portConstraint=eastwest;top=0;left=0;right=0;bottom=0;fontSize=16;fontStyle=1" vertex="1" parent="zJq3wZkq0JXxxK5WvGRM-67">
          <mxGeometry y="30" width="180" height="39" as="geometry" />
        </mxCell>
        <mxCell id="zJq3wZkq0JXxxK5WvGRM-72" value="FK1" style="shape=partialRectangle;connectable=0;fillColor=none;top=0;left=0;bottom=0;right=0;editable=1;overflow=hidden;whiteSpace=wrap;html=1;fontSize=16;fontStyle=1" vertex="1" parent="zJq3wZkq0JXxxK5WvGRM-71">
          <mxGeometry width="30" height="39" as="geometry">
            <mxRectangle width="30" height="39" as="alternateBounds" />
          </mxGeometry>
        </mxCell>
        <mxCell id="zJq3wZkq0JXxxK5WvGRM-73" value="product_key" style="shape=partialRectangle;connectable=0;fillColor=none;top=0;left=0;bottom=0;right=0;align=left;spacingLeft=6;overflow=hidden;whiteSpace=wrap;html=1;fontSize=16;fontStyle=1;labelBackgroundColor=#BEBEBE;" vertex="1" parent="zJq3wZkq0JXxxK5WvGRM-71">
          <mxGeometry x="30" width="150" height="39" as="geometry">
            <mxRectangle width="150" height="39" as="alternateBounds" />
          </mxGeometry>
        </mxCell>
        <mxCell id="zJq3wZkq0JXxxK5WvGRM-74" value="" style="shape=tableRow;horizontal=0;startSize=0;swimlaneHead=0;swimlaneBody=0;fillColor=none;collapsible=0;dropTarget=0;points=[[0,0.5],[1,0.5]];portConstraint=eastwest;top=0;left=0;right=0;bottom=0;fontSize=16;fontStyle=1" vertex="1" parent="zJq3wZkq0JXxxK5WvGRM-67">
          <mxGeometry y="69" width="180" height="39" as="geometry" />
        </mxCell>
        <mxCell id="zJq3wZkq0JXxxK5WvGRM-75" value="FK2" style="shape=partialRectangle;connectable=0;fillColor=none;top=0;left=0;bottom=0;right=0;editable=1;overflow=hidden;whiteSpace=wrap;html=1;fontSize=16;fontStyle=1" vertex="1" parent="zJq3wZkq0JXxxK5WvGRM-74">
          <mxGeometry width="30" height="39" as="geometry">
            <mxRectangle width="30" height="39" as="alternateBounds" />
          </mxGeometry>
        </mxCell>
        <mxCell id="zJq3wZkq0JXxxK5WvGRM-76" value="customer_key" style="shape=partialRectangle;connectable=0;fillColor=none;top=0;left=0;bottom=0;right=0;align=left;spacingLeft=6;overflow=hidden;whiteSpace=wrap;html=1;fontSize=16;fontStyle=1;labelBackgroundColor=#BEBEBE;" vertex="1" parent="zJq3wZkq0JXxxK5WvGRM-74">
          <mxGeometry x="30" width="150" height="39" as="geometry">
            <mxRectangle width="150" height="39" as="alternateBounds" />
          </mxGeometry>
        </mxCell>
        <mxCell id="zJq3wZkq0JXxxK5WvGRM-77" value="" style="shape=tableRow;horizontal=0;startSize=0;swimlaneHead=0;swimlaneBody=0;fillColor=none;collapsible=0;dropTarget=0;points=[[0,0.5],[1,0.5]];portConstraint=eastwest;top=0;left=0;right=0;bottom=0;fontSize=16;fontStyle=1" vertex="1" parent="zJq3wZkq0JXxxK5WvGRM-67">
          <mxGeometry y="108" width="180" height="39" as="geometry" />
        </mxCell>
        <mxCell id="zJq3wZkq0JXxxK5WvGRM-78" value="" style="shape=partialRectangle;connectable=0;fillColor=none;top=0;left=0;bottom=0;right=0;editable=1;overflow=hidden;whiteSpace=wrap;html=1;fontSize=16;fontStyle=1" vertex="1" parent="zJq3wZkq0JXxxK5WvGRM-77">
          <mxGeometry width="30" height="39" as="geometry">
            <mxRectangle width="30" height="39" as="alternateBounds" />
          </mxGeometry>
        </mxCell>
        <mxCell id="zJq3wZkq0JXxxK5WvGRM-79" value="order_date" style="shape=partialRectangle;connectable=0;fillColor=none;top=0;left=0;bottom=0;right=0;align=left;spacingLeft=6;overflow=hidden;whiteSpace=wrap;html=1;fontSize=16;fontStyle=1" vertex="1" parent="zJq3wZkq0JXxxK5WvGRM-77">
          <mxGeometry x="30" width="150" height="39" as="geometry">
            <mxRectangle width="150" height="39" as="alternateBounds" />
          </mxGeometry>
        </mxCell>
        <mxCell id="zJq3wZkq0JXxxK5WvGRM-80" value="" style="shape=tableRow;horizontal=0;startSize=0;swimlaneHead=0;swimlaneBody=0;fillColor=none;collapsible=0;dropTarget=0;points=[[0,0.5],[1,0.5]];portConstraint=eastwest;top=0;left=0;right=0;bottom=0;fontSize=16;fontStyle=1" vertex="1" parent="zJq3wZkq0JXxxK5WvGRM-67">
          <mxGeometry y="147" width="180" height="39" as="geometry" />
        </mxCell>
        <mxCell id="zJq3wZkq0JXxxK5WvGRM-81" value="" style="shape=partialRectangle;connectable=0;fillColor=none;top=0;left=0;bottom=0;right=0;editable=1;overflow=hidden;whiteSpace=wrap;html=1;fontSize=16;fontStyle=1" vertex="1" parent="zJq3wZkq0JXxxK5WvGRM-80">
          <mxGeometry width="30" height="39" as="geometry">
            <mxRectangle width="30" height="39" as="alternateBounds" />
          </mxGeometry>
        </mxCell>
        <mxCell id="zJq3wZkq0JXxxK5WvGRM-82" value="shipping_date" style="shape=partialRectangle;connectable=0;fillColor=none;top=0;left=0;bottom=0;right=0;align=left;spacingLeft=6;overflow=hidden;whiteSpace=wrap;html=1;fontSize=16;fontStyle=1" vertex="1" parent="zJq3wZkq0JXxxK5WvGRM-80">
          <mxGeometry x="30" width="150" height="39" as="geometry">
            <mxRectangle width="150" height="39" as="alternateBounds" />
          </mxGeometry>
        </mxCell>
        <mxCell id="zJq3wZkq0JXxxK5WvGRM-83" value="" style="shape=tableRow;horizontal=0;startSize=0;swimlaneHead=0;swimlaneBody=0;fillColor=none;collapsible=0;dropTarget=0;points=[[0,0.5],[1,0.5]];portConstraint=eastwest;top=0;left=0;right=0;bottom=0;fontSize=16;fontStyle=1" vertex="1" parent="zJq3wZkq0JXxxK5WvGRM-67">
          <mxGeometry y="186" width="180" height="39" as="geometry" />
        </mxCell>
        <mxCell id="zJq3wZkq0JXxxK5WvGRM-84" value="" style="shape=partialRectangle;connectable=0;fillColor=none;top=0;left=0;bottom=0;right=0;editable=1;overflow=hidden;whiteSpace=wrap;html=1;fontSize=16;fontStyle=1" vertex="1" parent="zJq3wZkq0JXxxK5WvGRM-83">
          <mxGeometry width="30" height="39" as="geometry">
            <mxRectangle width="30" height="39" as="alternateBounds" />
          </mxGeometry>
        </mxCell>
        <mxCell id="zJq3wZkq0JXxxK5WvGRM-85" value="due_date" style="shape=partialRectangle;connectable=0;fillColor=none;top=0;left=0;bottom=0;right=0;align=left;spacingLeft=6;overflow=hidden;whiteSpace=wrap;html=1;fontSize=16;fontStyle=1" vertex="1" parent="zJq3wZkq0JXxxK5WvGRM-83">
          <mxGeometry x="30" width="150" height="39" as="geometry">
            <mxRectangle width="150" height="39" as="alternateBounds" />
          </mxGeometry>
        </mxCell>
        <mxCell id="zJq3wZkq0JXxxK5WvGRM-86" value="" style="shape=tableRow;horizontal=0;startSize=0;swimlaneHead=0;swimlaneBody=0;fillColor=none;collapsible=0;dropTarget=0;points=[[0,0.5],[1,0.5]];portConstraint=eastwest;top=0;left=0;right=0;bottom=0;fontSize=16;fontStyle=1" vertex="1" parent="zJq3wZkq0JXxxK5WvGRM-67">
          <mxGeometry y="225" width="180" height="39" as="geometry" />
        </mxCell>
        <mxCell id="zJq3wZkq0JXxxK5WvGRM-87" value="" style="shape=partialRectangle;connectable=0;fillColor=none;top=0;left=0;bottom=0;right=0;editable=1;overflow=hidden;whiteSpace=wrap;html=1;fontSize=16;fontStyle=1" vertex="1" parent="zJq3wZkq0JXxxK5WvGRM-86">
          <mxGeometry width="30" height="39" as="geometry">
            <mxRectangle width="30" height="39" as="alternateBounds" />
          </mxGeometry>
        </mxCell>
        <mxCell id="zJq3wZkq0JXxxK5WvGRM-88" value="sales_amount" style="shape=partialRectangle;connectable=0;fillColor=none;top=0;left=0;bottom=0;right=0;align=left;spacingLeft=6;overflow=hidden;whiteSpace=wrap;html=1;fontSize=16;fontStyle=1" vertex="1" parent="zJq3wZkq0JXxxK5WvGRM-86">
          <mxGeometry x="30" width="150" height="39" as="geometry">
            <mxRectangle width="150" height="39" as="alternateBounds" />
          </mxGeometry>
        </mxCell>
        <mxCell id="zJq3wZkq0JXxxK5WvGRM-89" value="" style="shape=tableRow;horizontal=0;startSize=0;swimlaneHead=0;swimlaneBody=0;fillColor=none;collapsible=0;dropTarget=0;points=[[0,0.5],[1,0.5]];portConstraint=eastwest;top=0;left=0;right=0;bottom=0;fontSize=16;fontStyle=1" vertex="1" parent="zJq3wZkq0JXxxK5WvGRM-67">
          <mxGeometry y="264" width="180" height="39" as="geometry" />
        </mxCell>
        <mxCell id="zJq3wZkq0JXxxK5WvGRM-90" value="" style="shape=partialRectangle;connectable=0;fillColor=none;top=0;left=0;bottom=0;right=0;editable=1;overflow=hidden;whiteSpace=wrap;html=1;fontSize=16;fontStyle=1" vertex="1" parent="zJq3wZkq0JXxxK5WvGRM-89">
          <mxGeometry width="30" height="39" as="geometry">
            <mxRectangle width="30" height="39" as="alternateBounds" />
          </mxGeometry>
        </mxCell>
        <mxCell id="zJq3wZkq0JXxxK5WvGRM-91" value="&lt;span style=&quot;text-align: center;&quot;&gt;quantity&lt;/span&gt;" style="shape=partialRectangle;connectable=0;fillColor=none;top=0;left=0;bottom=0;right=0;align=left;spacingLeft=6;overflow=hidden;whiteSpace=wrap;html=1;fontSize=16;fontStyle=1" vertex="1" parent="zJq3wZkq0JXxxK5WvGRM-89">
          <mxGeometry x="30" width="150" height="39" as="geometry">
            <mxRectangle width="150" height="39" as="alternateBounds" />
          </mxGeometry>
        </mxCell>
        <mxCell id="zJq3wZkq0JXxxK5WvGRM-92" value="" style="shape=tableRow;horizontal=0;startSize=0;swimlaneHead=0;swimlaneBody=0;fillColor=none;collapsible=0;dropTarget=0;points=[[0,0.5],[1,0.5]];portConstraint=eastwest;top=0;left=0;right=0;bottom=0;fontSize=16;fontStyle=1" vertex="1" parent="zJq3wZkq0JXxxK5WvGRM-67">
          <mxGeometry y="303" width="180" height="39" as="geometry" />
        </mxCell>
        <mxCell id="zJq3wZkq0JXxxK5WvGRM-93" value="" style="shape=partialRectangle;connectable=0;fillColor=none;top=0;left=0;bottom=0;right=0;editable=1;overflow=hidden;whiteSpace=wrap;html=1;fontSize=16;fontStyle=1" vertex="1" parent="zJq3wZkq0JXxxK5WvGRM-92">
          <mxGeometry width="30" height="39" as="geometry">
            <mxRectangle width="30" height="39" as="alternateBounds" />
          </mxGeometry>
        </mxCell>
        <mxCell id="zJq3wZkq0JXxxK5WvGRM-94" value="price" style="shape=partialRectangle;connectable=0;fillColor=none;top=0;left=0;bottom=0;right=0;align=left;spacingLeft=6;overflow=hidden;whiteSpace=wrap;html=1;fontSize=16;fontStyle=1" vertex="1" parent="zJq3wZkq0JXxxK5WvGRM-92">
          <mxGeometry x="30" width="150" height="39" as="geometry">
            <mxRectangle width="150" height="39" as="alternateBounds" />
          </mxGeometry>
        </mxCell>
        <mxCell id="zJq3wZkq0JXxxK5WvGRM-95" value="" style="shape=tableRow;horizontal=0;startSize=0;swimlaneHead=0;swimlaneBody=0;fillColor=none;collapsible=0;dropTarget=0;points=[[0,0.5],[1,0.5]];portConstraint=eastwest;top=0;left=0;right=0;bottom=0;fontSize=16;fontStyle=1" vertex="1" parent="zJq3wZkq0JXxxK5WvGRM-67">
          <mxGeometry y="342" width="180" height="38" as="geometry" />
        </mxCell>
        <mxCell id="zJq3wZkq0JXxxK5WvGRM-96" value="" style="shape=partialRectangle;connectable=0;fillColor=none;top=0;left=0;bottom=0;right=0;editable=1;overflow=hidden;whiteSpace=wrap;html=1;fontSize=16;fontStyle=1" vertex="1" parent="zJq3wZkq0JXxxK5WvGRM-95">
          <mxGeometry width="30" height="38" as="geometry">
            <mxRectangle width="30" height="38" as="alternateBounds" />
          </mxGeometry>
        </mxCell>
        <mxCell id="zJq3wZkq0JXxxK5WvGRM-97" value="order_number" style="shape=partialRectangle;connectable=0;fillColor=none;top=0;left=0;bottom=0;right=0;align=left;spacingLeft=6;overflow=hidden;whiteSpace=wrap;html=1;fontSize=16;fontStyle=1" vertex="1" parent="zJq3wZkq0JXxxK5WvGRM-95">
          <mxGeometry x="30" width="150" height="38" as="geometry">
            <mxRectangle width="150" height="38" as="alternateBounds" />
          </mxGeometry>
        </mxCell>
        <mxCell id="zJq3wZkq0JXxxK5WvGRM-98" value="" style="shape=tableRow;horizontal=0;startSize=0;swimlaneHead=0;swimlaneBody=0;fillColor=none;collapsible=0;dropTarget=0;points=[[0,0.5],[1,0.5]];portConstraint=eastwest;top=0;left=0;right=0;bottom=0;fontSize=16;fontStyle=1" vertex="1" parent="zJq3wZkq0JXxxK5WvGRM-67">
          <mxGeometry y="380" width="180" height="20" as="geometry" />
        </mxCell>
        <mxCell id="zJq3wZkq0JXxxK5WvGRM-99" value="" style="shape=partialRectangle;connectable=0;fillColor=none;top=0;left=0;bottom=0;right=0;editable=1;overflow=hidden;whiteSpace=wrap;html=1;fontSize=16;fontStyle=1" vertex="1" parent="zJq3wZkq0JXxxK5WvGRM-98">
          <mxGeometry width="30" height="20" as="geometry">
            <mxRectangle width="30" height="20" as="alternateBounds" />
          </mxGeometry>
        </mxCell>
        <mxCell id="zJq3wZkq0JXxxK5WvGRM-100" value="" style="shape=partialRectangle;connectable=0;fillColor=none;top=0;left=0;bottom=0;right=0;align=left;spacingLeft=6;overflow=hidden;whiteSpace=wrap;html=1;fontSize=16;fontStyle=1" vertex="1" parent="zJq3wZkq0JXxxK5WvGRM-98">
          <mxGeometry x="30" width="150" height="20" as="geometry">
            <mxRectangle width="150" height="20" as="alternateBounds" />
          </mxGeometry>
        </mxCell>
        <mxCell id="zJq3wZkq0JXxxK5WvGRM-105" value="" style="edgeStyle=entityRelationEdgeStyle;fontSize=12;html=1;endArrow=ERzeroToMany;startArrow=ERmandOne;rounded=0;exitX=1;exitY=0.5;exitDx=0;exitDy=0;entryX=0;entryY=0.5;entryDx=0;entryDy=0;" edge="1" parent="1" source="zJq3wZkq0JXxxK5WvGRM-2" target="zJq3wZkq0JXxxK5WvGRM-74">
          <mxGeometry width="100" height="100" relative="1" as="geometry">
            <mxPoint x="200" y="390" as="sourcePoint" />
            <mxPoint x="300" y="290" as="targetPoint" />
            <Array as="points">
              <mxPoint x="160" y="340" />
            </Array>
          </mxGeometry>
        </mxCell>
        <mxCell id="zJq3wZkq0JXxxK5WvGRM-106" value="" style="edgeStyle=entityRelationEdgeStyle;fontSize=12;html=1;endArrow=ERzeroToMany;startArrow=ERmandOne;rounded=0;exitX=0;exitY=0.5;exitDx=0;exitDy=0;" edge="1" parent="1" source="zJq3wZkq0JXxxK5WvGRM-34" target="zJq3wZkq0JXxxK5WvGRM-71">
          <mxGeometry width="100" height="100" relative="1" as="geometry">
            <mxPoint x="300" y="300" as="sourcePoint" />
            <mxPoint x="410" y="344" as="targetPoint" />
            <Array as="points">
              <mxPoint x="280" y="430" />
            </Array>
          </mxGeometry>
        </mxCell>
      </root>
    </mxGraphModel>
  </diagram>
</mxfile>
